<svg width="16" height="16" viewBox="0 0 16 16" fill="none" xmlns="http://www.w3.org/2000/svg">
<rect width="16" height="16" fill="white"/>
<path d="M14.2275 10.4545L14.8275 10.4545V10.4545H14.2275ZM7.20117 11.4545V10.8545C7.04204 10.8545 6.88943 10.9177 6.77691 11.0302L7.20117 11.4545ZM5.3623 13.2933L5.7864 13.7178L5.78657 13.7176L5.3623 13.2933ZM3.65527 11.4545H4.25527C4.25527 11.1231 3.98664 10.8545 3.65527 10.8545V11.4545ZM3 11.4545L3 12.0545H3V11.4545ZM2 10.4545H1.4V10.4545L2 10.4545ZM3 2.8949V2.2949V2.8949ZM13.2275 2.8949V3.4949C13.4485 3.4949 13.6275 3.67398 13.6275 3.8949H14.2275H14.8275C14.8275 3.01124 14.1112 2.2949 13.2275 2.2949V2.8949ZM14.2275 3.8949H13.6275V10.4545H14.2275H14.8275V3.8949H14.2275ZM14.2275 10.4545L13.6275 10.4544C13.6275 10.6754 13.4484 10.8545 13.2275 10.8545V11.4545V12.0545C14.1112 12.0545 14.8275 11.3381 14.8275 10.4545L14.2275 10.4545ZM13.2275 11.4545V10.8545H7.20117V11.4545V12.0545H13.2275V11.4545ZM7.20117 11.4545L6.77691 11.0302L4.93804 12.8691L5.3623 13.2933L5.78657 13.7176L7.62544 11.8787L7.20117 11.4545ZM5.3623 13.2933L4.93821 12.8689C4.68667 13.1202 4.25527 12.9423 4.25527 12.5853H3.65527H3.05527C3.05527 14.0099 4.77792 14.7255 5.7864 13.7178L5.3623 13.2933ZM3.65527 12.5853H4.25527V11.4545H3.65527H3.05527V12.5853H3.65527ZM3.65527 11.4545V10.8545H3V11.4545V12.0545H3.65527V11.4545ZM3 11.4545V10.8545C2.77914 10.8545 2.60001 10.6754 2.6 10.4544L2 10.4545L1.4 10.4545C1.40005 11.3381 2.11633 12.0545 3 12.0545L3 11.4545ZM2 10.4545H2.6V3.8949H2H1.4V10.4545H2ZM2 3.8949H2.6C2.6 3.67398 2.77909 3.4949 3 3.4949V2.8949V2.2949C2.11634 2.2949 1.4 3.01124 1.4 3.8949H2ZM3 2.8949V3.4949H13.2275V2.8949V2.2949H3V2.8949Z" fill="#616161"/>
<circle cx="6" cy="7.20001" r="0.5" fill="#616161"/>
<circle cx="8" cy="7.20001" r="0.5" fill="#616161"/>
<circle cx="10" cy="7.20001" r="0.5" fill="#616161"/>
</svg>
