<svg width="16" height="16" viewBox="0 0 16 16" fill="none" xmlns="http://www.w3.org/2000/svg">
<rect width="16" height="16" fill="white"/>
<mask id="path-1-inside-1_40000001_4810" fill="white">
<path d="M1 3.82C1 3.09098 1.6268 2.5 2.4 2.5H13.6C14.3732 2.5 15 3.09098 15 3.82V12.18C15 12.909 14.3732 13.5 13.6 13.5H2.4C1.6268 13.5 1 12.909 1 12.18V3.82Z"/>
</mask>
<path d="M7.17504 8.32218L6.83106 8.68506L6.83204 8.68598L7.17504 8.32218ZM8.82496 8.32218L9.16796 8.68598L9.16893 8.68506L8.82496 8.32218ZM1.26514 10.9143C1.05213 11.09 1.02191 11.4052 1.19765 11.6182C1.37338 11.8312 1.68852 11.8614 1.90152 11.6857L1.26514 10.9143ZM6.56819 7.83569C6.7812 7.65995 6.81142 7.34482 6.63569 7.13181C6.45995 6.9188 6.14482 6.88858 5.93181 7.06431L6.56819 7.83569ZM14.1078 11.6932C14.3249 11.8638 14.6392 11.826 14.8098 11.6089C14.9804 11.3918 14.9427 11.0774 14.7256 10.9068L14.1078 11.6932ZM12.6667 9.925L12.3432 10.3062L12.3503 10.3123L12.3578 10.3182L12.6667 9.925ZM10.0735 7.06876C9.86296 6.89009 9.54743 6.91594 9.36876 7.12649C9.19009 7.33704 9.21594 7.65257 9.42649 7.83124L10.0735 7.06876ZM2 3.41667L1.65602 3.77954L6.83107 8.68506L7.17504 8.32218L7.51902 7.95931L2.34398 3.05379L2 3.41667ZM8.82496 8.32218L9.16893 8.68506L14.344 3.77954L14 3.41667L13.656 3.05379L8.48098 7.95931L8.82496 8.32218ZM7.17504 8.32218L6.83204 8.68598C7.48026 9.29716 8.51974 9.29716 9.16796 8.68598L8.82496 8.32218L8.48195 7.95839C8.21895 8.20636 7.78105 8.20636 7.51805 7.95839L7.17504 8.32218ZM14.4167 11.3L14.7256 10.9068L12.9756 9.53184L12.6667 9.925L12.3578 10.3182L14.1078 11.6932L14.4167 11.3ZM12.6667 9.925L12.9902 9.54376L10.0735 7.06876L9.75 7.45L9.42649 7.83124L12.3432 10.3062L12.6667 9.925ZM1.58333 11.3L1.90152 11.6857L6.56819 7.83569L6.25 7.45L5.93181 7.06431L1.26514 10.9143L1.58333 11.3ZM2.4 2.5V3.5H13.6V2.5V1.5H2.4V2.5ZM15 3.82H14V12.18H15H16V3.82H15ZM13.6 13.5V12.5H2.4V13.5V14.5H13.6V13.5ZM1 12.18H2V3.82H1H0V12.18H1ZM2.4 13.5V12.5C2.12284 12.5 2 12.3021 2 12.18H1H0C0 13.5159 1.13077 14.5 2.4 14.5V13.5ZM15 12.18H14C14 12.3021 13.8772 12.5 13.6 12.5V13.5V14.5C14.8692 14.5 16 13.5159 16 12.18H15ZM13.6 2.5V3.5C13.8772 3.5 14 3.69789 14 3.82H15H16C16 2.48408 14.8692 1.5 13.6 1.5V2.5ZM2.4 2.5V1.5C1.13077 1.5 0 2.48408 0 3.82H1H2C2 3.69789 2.12284 3.5 2.4 3.5V2.5Z" fill="#616161" mask="url(#path-1-inside-1_40000001_4810)"/>
</svg>
