<svg width="16" height="16" viewBox="0 0 16 16" fill="none" xmlns="http://www.w3.org/2000/svg">
<rect width="16" height="16" fill="white"/>
<circle cx="8" cy="4.77058" r="1.87059" stroke="#616161" stroke-width="1.2"/>
<path d="M8 8.19373C9.33214 8.19373 10.6196 8.71925 11.6123 9.67126L11.8066 9.86658C12.3393 10.4306 12.7508 11.1023 13.0225 11.8353L13.1309 12.1537C13.2245 12.458 13.1448 12.7335 12.9443 12.9535C12.7344 13.1839 12.3909 13.347 12 13.347H4L3.85547 13.3392C3.52511 13.3048 3.23932 13.155 3.05566 12.9535C2.88018 12.7609 2.79686 12.5257 2.8418 12.266L2.86914 12.1537C3.10024 11.4038 3.47471 10.7085 3.97266 10.1146L4.19336 9.86658C5.14558 8.85835 6.40947 8.27108 7.73438 8.20154L8 8.19373Z" stroke="#616161" stroke-width="1.2"/>
</svg>
