<svg width="16" height="16" viewBox="0 0 16 16" fill="none" xmlns="http://www.w3.org/2000/svg">
<rect width="16" height="16" fill="white"/>
<path d="M7.5 1C10.5376 1 13 3.46243 13 6.5C13 8.06625 12.3436 9.47779 11.293 10.4795C11.3051 10.4863 11.3183 10.4913 11.3301 10.499L11.4238 10.5762L14.4238 13.5762L14.501 13.6699C14.6548 13.9028 14.6289 14.2188 14.4238 14.4238C14.2188 14.6289 13.9028 14.6548 13.6699 14.501L13.5762 14.4238L10.5762 11.4238L10.499 11.3301C10.4636 11.2764 10.4382 11.2183 10.4219 11.1582C9.57508 11.6905 8.57402 12 7.5 12C4.46243 12 2 9.53757 2 6.5C2 3.46243 4.46243 1 7.5 1ZM7.5 2.2002C5.12518 2.2002 3.2002 4.12518 3.2002 6.5C3.2002 8.87482 5.12518 10.7998 7.5 10.7998C9.87482 10.7998 11.7998 8.87482 11.7998 6.5C11.7998 4.12518 9.87482 2.2002 7.5 2.2002Z" fill="#9E9E9E"/>
</svg>
