<svg width="16" height="16" viewBox="0 0 16 16" fill="none" xmlns="http://www.w3.org/2000/svg">
<g clip-path="url(#clip0_40000065_3033)">
<rect width="16" height="16" fill="white"/>
<path d="M12.3126 3.68655C12.5175 3.89142 12.5433 4.20777 12.3899 4.44061L12.3126 4.53452L8.84749 7.99962L12.3126 11.4647L12.3899 11.5586C12.5435 11.7914 12.5173 12.1077 12.3126 12.3127C12.1076 12.5177 11.7914 12.5437 11.5585 12.39L11.4646 12.3127L7.99951 8.8476L4.53441 12.3127C4.3001 12.547 3.92075 12.547 3.68644 12.3127C3.4524 12.0784 3.45221 11.6989 3.68644 11.4647L7.15154 7.99962L3.68644 4.53452C3.4524 4.30019 3.45221 3.92077 3.68644 3.68655C3.92068 3.4526 4.30017 3.4526 4.53441 3.68655L7.99951 7.15165L11.4646 3.68655L11.5585 3.60921C11.7913 3.45579 12.1077 3.48189 12.3126 3.68655Z" fill="#616161"/>
</g>
<defs>
<clipPath id="clip0_40000065_3033">
<rect width="16" height="16" fill="white"/>
</clipPath>
</defs>
</svg>
