<svg width="16" height="16" viewBox="0 0 16 16" fill="none" xmlns="http://www.w3.org/2000/svg">
<rect width="16" height="16" fill="white"/>
<path d="M9.07227 3L9.07269 2.5H9.07227V3ZM9.56152 3.39746L10.051 3.29556L10.0509 3.29499L9.56152 3.39746ZM9.83008 4.6875L9.34057 4.7894C9.38885 5.0213 9.59321 5.1875 9.83008 5.1875V4.6875ZM13.75 5.6875H14.25H13.75ZM12.75 12V12.5V12ZM2.5 11H2H2.5ZM3.5 4.6875V4.1875V4.6875ZM6.16992 4.6875V5.1875C6.40679 5.1875 6.61115 5.0213 6.65943 4.7894L6.16992 4.6875ZM6.43848 3.39746L5.94909 3.29499L5.94897 3.29556L6.43848 3.39746ZM6.92773 3V2.5L6.92731 2.5L6.92773 3ZM9.07227 3L9.07184 3.5L9.07214 3.49993L9.56152 3.39746L10.0509 3.29499C9.95388 2.8316 9.54519 2.5004 9.07269 2.5L9.07227 3ZM9.56152 3.39746L9.07202 3.49936L9.34057 4.7894L9.83008 4.6875L10.3196 4.5856L10.051 3.29556L9.56152 3.39746ZM9.83008 4.6875V5.1875H12.75V4.6875V4.1875H9.83008V4.6875ZM12.75 4.6875V5.1875C13.0261 5.1875 13.25 5.41136 13.25 5.6875H13.75H14.25C14.25 4.85907 13.5784 4.1875 12.75 4.1875V4.6875ZM13.75 5.6875H13.25V11H13.75H14.25V5.6875H13.75ZM13.75 11H13.25C13.25 11.2761 13.0261 11.5 12.75 11.5V12V12.5C13.5784 12.5 14.25 11.8284 14.25 11H13.75ZM12.75 12V11.5H3.5V12V12.5H12.75V12ZM3.5 12V11.5C3.22386 11.5 3 11.2761 3 11H2.5H2C2 11.8284 2.67157 12.5 3.5 12.5V12ZM2.5 11H3V5.6875H2.5H2V11H2.5ZM2.5 5.6875H3C3 5.41136 3.22386 5.1875 3.5 5.1875V4.6875V4.1875C2.67157 4.1875 2 4.85907 2 5.6875H2.5ZM3.5 4.6875V5.1875H6.16992V4.6875V4.1875H3.5V4.6875ZM6.16992 4.6875L6.65943 4.7894L6.92798 3.49936L6.43848 3.39746L5.94897 3.29556L5.68042 4.5856L6.16992 4.6875ZM6.43848 3.39746L6.92786 3.49993L6.92816 3.5L6.92773 3L6.92731 2.5C6.45481 2.5004 6.04612 2.8316 5.94909 3.29499L6.43848 3.39746ZM6.92773 3V3.5H9.07227V3V2.5H6.92773V3Z" fill="#616161"/>
<circle cx="8.10001" cy="8.19995" r="1.5" stroke="#616161"/>
</svg>
