<svg width="16" height="16" viewBox="0 0 16 16" fill="none" xmlns="http://www.w3.org/2000/svg">
<rect width="16" height="16" fill="white"/>
<path d="M8.05936 4.92398L7.49253 4.72727C7.49022 4.73391 7.48803 4.7406 7.48596 4.74733L8.05936 4.92398ZM11.909 3.00504L12.0861 2.43177C12.0792 2.42966 12.0724 2.42767 12.0655 2.42581L11.909 3.00504ZM13.8631 7.65152L14.4508 7.77237L14.4508 7.77237L13.8631 7.65152ZM7.99979 13.1427L7.81045 13.7121C7.93336 13.753 8.0662 13.753 8.18911 13.7121L7.99979 13.1427ZM2.13651 7.65152L1.54881 7.77236L1.54881 7.77237L2.13651 7.65152ZM4.09159 3.00504L3.93513 2.4258C3.92825 2.42766 3.92139 2.42964 3.91458 2.43174L4.09159 3.00504ZM7.99979 5.11734L7.41972 5.27071C7.48818 5.52962 7.71993 5.71181 7.98768 5.71722C8.25543 5.72263 8.49435 5.54994 8.5732 5.294L7.99979 5.11734ZM8.05936 4.92398L8.6262 5.1207C8.77039 4.70522 9.08116 4.18576 9.57725 3.84235C10.0496 3.51538 10.7408 3.31094 11.7525 3.58427L11.909 3.00504L12.0655 2.42581C10.7317 2.06546 9.67292 2.31667 8.89425 2.85568C8.13933 3.37826 7.69804 4.13511 7.49253 4.72727L8.05936 4.92398ZM11.909 3.00504L11.7319 3.57831C12.0536 3.6777 12.5762 3.98921 12.9495 4.60473C13.3135 5.20467 13.5618 6.13787 13.2754 7.53068L13.8631 7.65152L14.4508 7.77237C14.7897 6.12416 14.517 4.87498 13.9755 3.98237C13.4435 3.10534 12.6764 2.61412 12.0861 2.43177L11.909 3.00504ZM13.8631 7.65152L13.2754 7.53067C13.0029 8.85595 12.0815 9.97619 10.9618 10.8543C9.84695 11.7286 8.60062 12.3106 7.81047 12.5734L7.99979 13.1427L8.18911 13.7121C9.09273 13.4116 10.4654 12.7687 11.7023 11.7985C12.9345 10.8322 14.0979 9.48842 14.4508 7.77237L13.8631 7.65152ZM7.99979 13.1427L8.18913 12.5734C7.39893 12.3106 6.15259 11.7286 5.03774 10.8542C3.91808 9.97609 2.99672 8.85588 2.72421 7.53067L2.13651 7.65152L1.54881 7.77237C1.90167 9.48835 3.06502 10.8321 4.29719 11.7985C5.53418 12.7686 6.9068 13.4116 7.81045 13.7121L7.99979 13.1427ZM2.13651 7.65152L2.72422 7.53069C2.43784 6.13786 2.68636 5.20468 3.05048 4.60474C3.42407 3.98919 3.94686 3.67767 4.2686 3.57833L4.09159 3.00504L3.91458 2.43174C3.3243 2.614 2.55691 3.10513 2.02464 3.98213C1.48289 4.87473 1.20988 6.12399 1.54881 7.77236L2.13651 7.65152ZM4.09159 3.00504L4.24804 3.58428C5.32344 3.29382 6.04029 3.54216 6.51859 3.91261C7.02553 4.30523 7.31579 4.8776 7.41972 5.27071L7.99979 5.11734L8.57986 4.96398C8.42322 4.37152 8.01007 3.54993 7.25338 2.96388C6.46807 2.35566 5.3611 2.04064 3.93513 2.4258L4.09159 3.00504ZM7.99979 5.11734L8.5732 5.294L8.63277 5.10064L8.05936 4.92398L7.48596 4.74733L7.42639 4.94069L7.99979 5.11734Z" fill="#616161"/>
</svg>
