<svg width="16" height="16" viewBox="0 0 16 16" fill="none" xmlns="http://www.w3.org/2000/svg">
<rect width="16" height="16" fill="white"/>
<path d="M4.25293 6.7207L4.25288 6.1207H4.25293V6.7207ZM1.5 9.47363H0.9V9.47347L1.5 9.47363ZM2.33301 11.4443L2.75195 11.0148C2.9284 11.1869 2.98164 11.4494 2.8862 11.6767L2.33301 11.4443ZM2.16895 11.835L1.6151 11.6042L1.61576 11.6026L2.16895 11.835ZM3.7168 13.001L4.09161 13.4695L4.09148 13.4696L3.7168 13.001ZM4.68359 12.2275L4.30878 11.759C4.41516 11.6739 4.54735 11.6275 4.68359 11.6275V12.2275ZM6.61328 12.2275L6.61335 12.8275H6.61328V12.2275ZM9.36621 9.47363L9.96621 9.47347V9.47363H9.36621ZM6.61328 6.7207V6.1207H6.61335L6.61328 6.7207ZM4.25293 6.7207L4.25298 7.3207C3.06418 7.3208 2.10032 8.28475 2.1 9.47379L1.5 9.47363L0.9 9.47347C0.900493 7.62217 2.4012 6.12085 4.25288 6.1207L4.25293 6.7207ZM1.5 9.47363H2.1C2.1 10.0771 2.34921 10.622 2.75195 11.0148L2.33301 11.4443L1.91406 11.8739C1.29109 11.2662 0.9 10.416 0.9 9.47363H1.5ZM2.33301 11.4443L2.8862 11.6767L2.72213 12.0673L2.16895 11.835L1.61576 11.6026L1.77982 11.212L2.33301 11.4443ZM2.16895 11.835L2.72279 12.0657C2.56355 12.4479 3.01894 12.7907 3.34211 12.5323L3.7168 13.001L4.09148 13.4696C2.79832 14.5035 0.978287 13.1325 1.6151 11.6042L2.16895 11.835ZM3.7168 13.001L3.34198 12.5325L4.30878 11.759L4.68359 12.2275L5.05841 12.6961L4.09161 13.4695L3.7168 13.001ZM4.68359 12.2275V11.6275H6.61328V12.2275V12.8275H4.68359V12.2275ZM6.61328 12.2275L6.61321 11.6275C7.80212 11.6274 8.76621 10.6629 8.76621 9.47363H9.36621H9.96621C9.96621 11.3253 8.4653 12.8273 6.61335 12.8275L6.61328 12.2275ZM9.36621 9.47363L8.76621 9.47379C8.76589 8.28482 7.80199 7.32085 6.61321 7.3207L6.61328 6.7207L6.61335 6.1207C8.46494 6.12093 9.96572 7.62218 9.96621 9.47347L9.36621 9.47363ZM6.61328 6.7207V7.3207H4.25293V6.7207V6.1207H6.61328V6.7207Z" fill="#616161"/>
<path d="M11.1826 3.5C13.0263 3.50015 14.5205 4.9952 14.5205 6.83887C14.5203 8.08843 13.8329 9.17593 12.8164 9.74805C13.066 10.6483 11.9958 11.4 11.2246 10.7832L10.4668 10.1768H8.32129C6.47767 10.1768 4.98266 8.68243 4.98242 6.83887C4.98242 4.9951 6.47752 3.5 8.32129 3.5H11.1826Z" fill="white"/>
<path d="M11.1826 3.5L11.1827 2.9H11.1826V3.5ZM14.5205 6.83887L15.1205 6.83894V6.83887H14.5205ZM12.8164 9.74805L12.5221 9.22518C12.2816 9.36052 12.1645 9.64243 12.2382 9.90835L12.8164 9.74805ZM11.2246 10.7832L10.8497 11.2517L10.8499 11.2518L11.2246 10.7832ZM10.4668 10.1768L10.8417 9.7083C10.7353 9.62315 10.6031 9.57676 10.4668 9.57676V10.1768ZM4.98242 6.83887H4.38242V6.83894L4.98242 6.83887ZM11.1826 3.5L11.1826 4.1C12.6947 4.10012 13.9205 5.32639 13.9205 6.83887H14.5205H15.1205C15.1205 4.664 13.3578 2.90018 11.1827 2.9L11.1826 3.5ZM14.5205 6.83887L13.9205 6.83879C13.9204 7.8624 13.358 8.75472 12.5221 9.22518L12.8164 9.74805L13.1107 10.2709C14.3078 9.59715 15.1203 8.31446 15.1205 6.83894L14.5205 6.83887ZM12.8164 9.74805L12.2382 9.90835C12.3378 10.2674 11.9001 10.5552 11.5994 10.3146L11.2246 10.7832L10.8499 11.2518C12.0915 12.2448 13.7942 11.0291 13.3946 9.58775L12.8164 9.74805ZM11.2246 10.7832L11.5995 10.3147L10.8417 9.7083L10.4668 10.1768L10.0919 10.6452L10.8497 11.2517L11.2246 10.7832ZM10.4668 10.1768V9.57676H8.32129V10.1768V10.7768H10.4668V10.1768ZM8.32129 10.1768V9.57676C6.80889 9.57676 5.58262 8.35089 5.58242 6.83879L4.98242 6.83887L4.38242 6.83894C4.3827 9.01397 6.14645 10.7768 8.32129 10.7768V10.1768ZM4.98242 6.83887H5.58242C5.58242 5.32647 6.8089 4.1 8.32129 4.1V3.5V2.9C6.14615 2.9 4.38242 4.66373 4.38242 6.83887H4.98242ZM8.32129 3.5V4.1H11.1826V3.5V2.9H8.32129V3.5Z" fill="#616161"/>
<circle cx="7.75" cy="7" r="0.5" fill="#616161"/>
<circle cx="9.75" cy="7" r="0.5" fill="#616161"/>
<circle cx="11.75" cy="7" r="0.5" fill="#616161"/>
</svg>
