<svg width="16" height="16" viewBox="0 0 16 16" fill="none" xmlns="http://www.w3.org/2000/svg">
<rect width="16" height="16" fill="#616161"/>
<path d="M7.99951 1.90002C8.28925 1.90002 8.53122 2.10543 8.5874 2.37854L8.59912 2.49963V7.40002H13.4995L13.6206 7.41174C13.8938 7.46772 14.0989 7.70991 14.0991 7.99963C14.0991 8.28953 13.8939 8.53152 13.6206 8.58752L13.4995 8.59924H8.59912V13.4996C8.59912 13.831 8.33088 14.0992 7.99951 14.0992C7.66832 14.099 7.3999 13.8309 7.3999 13.4996V8.59924H2.49951C2.16832 8.59903 1.8999 8.33087 1.8999 7.99963C1.90011 7.66857 2.16845 7.40023 2.49951 7.40002H7.3999V2.49963L7.41162 2.37854C7.46772 2.10548 7.70989 1.90021 7.99951 1.90002Z" fill="white"/>
</svg>
