<svg width="24" height="24" viewBox="0 0 24 24" fill="none" xmlns="http://www.w3.org/2000/svg">
<path d="M15 18C15 19.6569 13.6569 21 12 21C10.3431 21 9 19.6569 9 18" stroke="#616161" stroke-width="1.2"/>
<path d="M3.48194 16.6613L4.51478 13.7923C4.78857 13.0317 4.92857 12.2295 4.92857 11.4212V9.75C4.92857 6.02208 7.95065 3 11.6786 3C15.4065 3 18.4286 6.02208 18.4286 9.75V11.0499C18.4286 12.0985 18.6642 13.1336 19.1179 14.079L20.3123 16.5673C20.6309 17.2311 20.1471 18 19.4108 18H4.42283C3.73022 18 3.24734 17.3129 3.48194 16.6613Z" stroke="#616161" stroke-width="1.2"/>
</svg>
