<svg width="24" height="24" viewBox="0 0 24 24" fill="none" xmlns="http://www.w3.org/2000/svg">
<rect width="24" height="24" fill="white"/>
<path d="M8.55916 5.09242C8.78391 4.84943 9.16347 4.8348 9.40682 5.05922C9.64993 5.284 9.66459 5.6635 9.44002 5.90688L4.36873 11.4H21.4996L21.6207 11.4118C21.8939 11.4677 22.0991 11.7099 22.0992 11.9996C22.0992 12.2895 21.894 12.5315 21.6207 12.5875L21.4996 12.5993H4.36873L9.44002 18.0924L9.51326 18.1901C9.65744 18.4288 9.61947 18.7434 9.40682 18.9401C9.19379 19.1367 8.87654 19.1498 8.64998 18.987L8.55916 18.9069L2.55916 12.4069C2.34721 12.177 2.34707 11.8222 2.55916 11.5924L8.55916 5.09242Z" fill="#616161"/>
</svg>
