<svg width="24" height="24" viewBox="0 0 24 24" fill="none" xmlns="http://www.w3.org/2000/svg">
<rect width="24" height="24" fill="white"/>
<path d="M6.27344 10L6.27337 9.4H6.27344V10ZM2 14.2734H1.4V14.2734L2 14.2734ZM4.81348 18.291L5.01853 17.7271C5.32786 17.8396 5.48882 18.1803 5.37927 18.4907L4.81348 18.291ZM4.80762 18.3076L4.23832 18.1179L4.24182 18.1079L4.80762 18.3076ZM7.24707 18.5479L6.82281 18.1236C6.93533 18.0111 7.08794 17.9479 7.24707 17.9479V18.5479ZM9.9375 18.5479L9.93759 19.1479H9.9375V18.5479ZM14.2109 14.2734L14.8109 14.2734V14.2734H14.2109ZM9.9375 10V9.4H9.93759L9.9375 10ZM6.27344 10L6.2735 10.6C4.24479 10.6002 2.60016 12.2448 2.6 14.2735L2 14.2734L1.4 14.2734C1.40022 11.582 3.58205 9.40029 6.27337 9.4L6.27344 10ZM2 14.2734H2.6C2.6 15.8605 3.60671 17.2137 5.01853 17.7271L4.81348 18.291L4.60842 18.8549C2.73776 18.1746 1.4 16.3813 1.4 14.2734H2ZM4.81348 18.291L5.37927 18.4907L5.37341 18.5073L4.80762 18.3076L4.24182 18.1079L4.24768 18.0913L4.81348 18.291ZM4.80762 18.3076L5.37683 18.4974C5.24345 18.8975 5.74092 19.2055 6.0396 18.9068L6.46387 19.3311L6.88813 19.7553C5.6945 20.9489 3.7044 19.7199 4.23841 18.1179L4.80762 18.3076ZM6.46387 19.3311L6.0396 18.9068L6.82281 18.1236L7.24707 18.5479L7.67133 18.9721L6.88813 19.7553L6.46387 19.3311ZM7.24707 18.5479V17.9479H9.9375V18.5479V19.1479H7.24707V18.5479ZM9.9375 18.5479L9.93741 17.9479C11.9661 17.9475 13.6109 16.3023 13.6109 14.2734H14.2109H14.8109C14.8109 16.9648 12.629 19.1474 9.93759 19.1479L9.9375 18.5479ZM14.2109 14.2734L13.6109 14.2735C13.6108 12.2449 11.9661 10.6003 9.93741 10.6L9.9375 10L9.93759 9.4C12.6288 9.4004 14.8107 11.582 14.8109 14.2734L14.2109 14.2734ZM9.9375 10V10.6H6.27344V10V9.4H9.9375V10Z" fill="#616161"/>
<path d="M17.0293 5C19.8911 5.00006 22.2107 7.31989 22.2109 10.1816C22.2109 12.328 20.9066 14.1701 19.0469 14.957L19.0859 15.043C19.4405 15.931 18.4243 16.7874 17.5977 16.2363L16.2891 15.3643H12.5869C9.72527 15.3638 7.40527 13.0434 7.40527 10.1816C7.40552 7.32012 9.72543 5.00042 12.5869 5H17.0293Z" fill="white"/>
<path d="M17.0293 5L17.0293 4.4H17.0293V5ZM22.2109 10.1816H22.8109V10.1816L22.2109 10.1816ZM19.0469 14.957L18.8131 14.4045C18.664 14.4675 18.5467 14.5882 18.4879 14.739C18.4291 14.8898 18.4337 15.058 18.5007 15.2053L19.0469 14.957ZM19.0859 15.043L19.6432 14.8205C19.6397 14.8118 19.636 14.8032 19.6322 14.7947L19.0859 15.043ZM17.5977 16.2363L17.9305 15.7371L17.9304 15.737L17.5977 16.2363ZM16.2891 15.3643L16.6218 14.865C16.5233 14.7993 16.4075 14.7643 16.2891 14.7643V15.3643ZM12.5869 15.3643L12.5868 15.9643H12.5869V15.3643ZM7.40527 10.1816L6.80527 10.1816V10.1816H7.40527ZM12.5869 5V4.4H12.5868L12.5869 5ZM17.0293 5L17.0293 5.6C19.5597 5.60005 21.6107 7.65123 21.6109 10.1817L22.2109 10.1816L22.8109 10.1816C22.8107 6.98855 20.2225 4.40006 17.0293 4.4L17.0293 5ZM22.2109 10.1816H21.6109C21.6109 12.0788 20.4585 13.7082 18.8131 14.4045L19.0469 14.957L19.2807 15.5096C21.3547 14.6321 22.8109 12.5773 22.8109 10.1816H22.2109ZM19.0469 14.957L18.5007 15.2053L18.5397 15.2913L19.0859 15.043L19.6322 14.7947L19.5931 14.7087L19.0469 14.957ZM19.0859 15.043L18.5287 15.2654C18.6694 15.6179 18.2568 15.9546 17.9305 15.7371L17.5977 16.2363L17.2648 16.7356C18.5918 17.6202 20.2116 16.2441 19.6432 14.8205L19.0859 15.043ZM17.5977 16.2363L17.9304 15.737L16.6218 14.865L16.2891 15.3643L15.9563 15.8635L17.2649 16.7356L17.5977 16.2363ZM16.2891 15.3643V14.7643H12.5869V15.3643V15.9643H16.2891V15.3643ZM12.5869 15.3643L12.587 14.7643C10.0567 14.7639 8.00527 12.7121 8.00527 10.1816H7.40527H6.80527C6.80527 13.3747 9.39382 15.9638 12.5868 15.9643L12.5869 15.3643ZM7.40527 10.1816L8.00527 10.1817C8.0055 7.65153 10.0568 5.60037 12.587 5.6L12.5869 5L12.5868 4.4C9.39407 4.40047 6.80555 6.9887 6.80527 10.1816L7.40527 10.1816ZM12.5869 5V5.6H17.0293V5V4.4H12.5869V5Z" fill="#616161"/>
<circle cx="11.8086" cy="10" r="1" fill="#616161"/>
<circle cx="14.8086" cy="10" r="1" fill="#616161"/>
<circle cx="17.8086" cy="10" r="1" fill="#616161"/>
</svg>
