<svg width="24" height="24" viewBox="0 0 24 24" fill="none" xmlns="http://www.w3.org/2000/svg">
<rect width="24" height="24" fill="white"/>
<path d="M15.9209 4.69043L15.3505 4.87644L15.3505 4.87649L15.9209 4.69043ZM16.5732 6.69043L17.1438 6.50472L17.1437 6.50437L16.5732 6.69043ZM16.6211 7L16.0211 7.00098C16.0216 7.33197 16.2901 7.6 16.6211 7.6V7ZM4 20L4 20.6H4V20ZM7.37891 7V7.6C7.7099 7.6 7.97837 7.33197 7.97891 7.00098L7.37891 7ZM7.42676 6.69043L6.85633 6.50437L6.85622 6.50472L7.42676 6.69043ZM8.0791 4.69043L8.64953 4.87649L8.64954 4.87644L8.0791 4.69043ZM14.9697 4V4.6C15.1427 4.6 15.2967 4.71172 15.3505 4.87644L15.9209 4.69043L16.4913 4.50442C16.2767 3.84612 15.6624 3.4 14.9697 3.4V4ZM15.9209 4.69043L15.3505 4.87649L16.0028 6.87649L16.5732 6.69043L17.1437 6.50437L16.4913 4.50437L15.9209 4.69043ZM16.5732 6.69043L16.0027 6.87614C16.0146 6.91276 16.021 6.95372 16.0211 7.00098L16.6211 7L17.2211 6.99902C17.2208 6.84281 17.1993 6.67541 17.1438 6.50472L16.5732 6.69043ZM16.6211 7V7.6H20V7V6.4H16.6211V7ZM20 7V7.6C20.7732 7.6 21.4 8.2268 21.4 9H22H22.6C22.6 7.56406 21.4359 6.4 20 6.4V7ZM22 9H21.4V18H22H22.6V9H22ZM22 18H21.4C21.4 18.7732 20.7732 19.4 20 19.4V20V20.6C21.4359 20.6 22.6 19.4359 22.6 18H22ZM20 20V19.4H4V20V20.6H20V20ZM4 20L4 19.4C3.2268 19.4 2.6 18.7732 2.6 18H2H1.4C1.4 19.4359 2.56406 20.6 4 20.6L4 20ZM2 18H2.6V9H2H1.4V18H2ZM2 9H2.6C2.6 8.2268 3.2268 7.6 4 7.6V7V6.4C2.56406 6.4 1.4 7.56406 1.4 9H2ZM4 7V7.6H7.37891V7V6.4H4V7ZM7.37891 7L7.97891 7.00098C7.97898 6.95372 7.98538 6.91276 7.9973 6.87614L7.42676 6.69043L6.85622 6.50472C6.80066 6.67541 6.77916 6.84281 6.77891 6.99902L7.37891 7ZM7.42676 6.69043L7.99718 6.87649L8.64953 4.87649L8.0791 4.69043L7.50868 4.50437L6.85633 6.50437L7.42676 6.69043ZM8.0791 4.69043L8.64954 4.87644C8.70325 4.71172 8.85726 4.6 9.03027 4.6V4V3.4C8.33761 3.4 7.72333 3.84612 7.50866 4.50442L8.0791 4.69043ZM9.03027 4V4.6H14.9697V4V3.4H9.03027V4Z" fill="#616161"/>
<circle cx="12" cy="13" r="2.9" stroke="#616161" stroke-width="1.2"/>
</svg>
