<svg width="24" height="24" viewBox="0 0 24 24" fill="none" xmlns="http://www.w3.org/2000/svg">
<rect width="24" height="24" fill="white"/>
<path d="M19 16H16C15.4477 16 15 16.4477 15 17V20" stroke="#616161" stroke-width="1.2"/>
<path d="M4.5 4.5V19.5C4.5 20.0523 4.94772 20.5 5.5 20.5H14.8823C15.1496 20.5 15.4057 20.393 15.5936 20.2029L19.2113 16.5422C19.3963 16.355 19.5 16.1024 19.5 15.8392V4.5C19.5 3.94772 19.0523 3.5 18.5 3.5H5.5C4.94772 3.5 4.5 3.94772 4.5 4.5Z" stroke="#616161" stroke-width="1.2"/>
<path d="M8 8.5H16" stroke="#616161" stroke-width="1.2" stroke-linecap="round"/>
<path d="M8 11.5H16" stroke="#616161" stroke-width="1.2" stroke-linecap="round"/>
<path d="M8 14.5H14" stroke="#616161" stroke-width="1.2" stroke-linecap="round"/>
</svg>
