<svg width="26" height="20" viewBox="0 0 26 20" fill="none" xmlns="http://www.w3.org/2000/svg">
<path d="M1 12.2764L0.25 12.2764V12.2763L1 12.2764ZM4.26953 16.9443L4.52584 16.2395C4.9077 16.3783 5.10953 16.796 4.98104 17.1815L4.26953 16.9443ZM4.0459 17.6152L3.33435 17.3782L3.33439 17.3781L4.0459 17.6152ZM5.70117 18.6387L6.2315 19.169L6.23129 19.1692L5.70117 18.6387ZM7.09668 17.2432L6.56635 16.7128C6.707 16.5722 6.89777 16.4932 7.09668 16.4932V17.2432ZM10.2236 17.2432L10.2238 17.9932H10.2236V17.2432ZM15.1895 12.2764L15.9395 12.2763V12.2764L15.1895 12.2764ZM10.2236 7.31055V6.56055H10.2238L10.2236 7.31055ZM5.9668 7.31055V8.06055C3.63824 8.06055 1.75018 9.94814 1.75 12.2764L1 12.2764L0.25 12.2763C0.250247 9.11942 2.81008 6.56055 5.9668 6.56055V7.31055ZM1 12.2764L1.75 12.2763C1.75016 14.0973 2.90547 15.6503 4.52584 16.2395L4.26953 16.9443L4.01322 17.6492C1.81941 16.8514 0.250222 14.7485 0.25 12.2764L1 12.2764ZM4.26953 16.9443L4.98104 17.1815L4.75741 17.8524L4.0459 17.6152L3.33439 17.3781L3.55802 16.7072L4.26953 16.9443ZM4.0459 17.6152L4.75745 17.8523C4.7302 17.9341 4.7401 17.9861 4.75431 18.0213C4.77152 18.0638 4.80771 18.1097 4.86308 18.1439C4.91845 18.1782 4.97565 18.19 5.02141 18.1864C5.05922 18.1834 5.11012 18.169 5.17106 18.1081L5.70117 18.6387L6.23129 19.1692C4.92538 20.4741 2.75084 19.1296 3.33435 17.3782L4.0459 17.6152ZM5.70117 18.6387L5.17084 18.1083L6.56635 16.7128L7.09668 17.2432L7.62701 17.7735L6.2315 19.169L5.70117 18.6387ZM7.09668 17.2432V16.4932H10.2236V17.2432V17.9932H7.09668V17.2432ZM10.2236 17.2432L10.2235 16.4932C12.5515 16.4928 14.4392 14.6046 14.4395 12.2763L15.1895 12.2764L15.9395 12.2764C15.9392 15.4327 13.3803 17.9927 10.2238 17.9932L10.2236 17.2432ZM15.1895 12.2764L14.4395 12.2764C14.4393 9.94834 12.5517 8.06092 10.2235 8.06055L10.2236 7.31055L10.2238 6.56055C13.3801 6.56105 15.9392 9.11977 15.9395 12.2763L15.1895 12.2764ZM10.2236 7.31055V8.06055H5.9668V7.31055V6.56055H10.2236V7.31055Z" fill="#616161"/>
<path d="M18.4648 1.5C21.7903 1.50023 24.4862 4.19604 24.4863 7.52148C24.4863 10.016 22.9692 12.1554 20.8076 13.0693L21.082 13.6162C21.5406 14.5334 20.486 15.4642 19.6328 14.8955L17.6035 13.543H13.3027C9.97717 13.5428 7.28125 10.8471 7.28125 7.52148C7.28137 4.19598 9.97724 1.50015 13.3027 1.5H18.4648Z" fill="#616161"/>
<path d="M18.4648 1.5L18.4649 0.75H18.4648V1.5ZM24.4863 7.52148H25.2363V7.52146L24.4863 7.52148ZM20.8076 13.0693L20.5155 12.3785C20.3245 12.4593 20.1755 12.6156 20.1038 12.8102C20.0322 13.0048 20.0443 13.2203 20.1373 13.4057L20.8076 13.0693ZM21.082 13.6162L21.7529 13.2808L21.7524 13.2798L21.082 13.6162ZM19.6328 14.8955L19.2169 15.5196L19.2169 15.5196L19.6328 14.8955ZM17.6035 13.543L18.0195 12.9189C17.8963 12.8368 17.7516 12.793 17.6035 12.793V13.543ZM13.3027 13.543L13.3027 14.293H13.3027V13.543ZM7.28125 7.52148L6.53125 7.52146V7.52148H7.28125ZM13.3027 1.5V0.75H13.3027L13.3027 1.5ZM18.4648 1.5L18.4648 2.25C21.3761 2.25021 23.7362 4.61028 23.7363 7.52151L24.4863 7.52148L25.2363 7.52146C25.2362 3.78179 22.2045 0.750264 18.4649 0.75L18.4648 1.5ZM24.4863 7.52148H23.7363C23.7363 9.70391 22.4096 11.5777 20.5155 12.3785L20.8076 13.0693L21.0997 13.7601C23.5289 12.733 25.2363 10.328 25.2363 7.52148H24.4863ZM20.8076 13.0693L20.1373 13.4057L20.4117 13.9526L21.082 13.6162L21.7524 13.2798L21.478 12.733L20.8076 13.0693ZM21.082 13.6162L20.4112 13.9516C20.448 14.0252 20.4468 14.0773 20.4381 14.1148C20.4279 14.1593 20.4002 14.2091 20.353 14.2508C20.3059 14.2924 20.253 14.3137 20.2075 14.3184C20.1691 14.3223 20.1172 14.317 20.0488 14.2714L19.6328 14.8955L19.2169 15.5196C20.7097 16.5145 22.5555 14.8862 21.7529 13.2808L21.082 13.6162ZM19.6328 14.8955L20.0488 14.2714L18.0195 12.9189L17.6035 13.543L17.1876 14.1671L19.2169 15.5196L19.6328 14.8955ZM17.6035 13.543V12.793H13.3027V13.543V14.293H17.6035V13.543ZM13.3027 13.543L13.3028 12.793C10.3914 12.7928 8.03125 10.4328 8.03125 7.52148H7.28125H6.53125C6.53125 11.2613 9.56298 14.2928 13.3027 14.293L13.3027 13.543ZM7.28125 7.52148L8.03125 7.52151C8.03135 4.61021 10.3915 2.25013 13.3028 2.25L13.3027 1.5L13.3027 0.75C9.56303 0.750166 6.53138 3.78176 6.53125 7.52146L7.28125 7.52148ZM13.3027 1.5V2.25H18.4648V1.5V0.75H13.3027V1.5Z" fill="#616161"/>
<circle cx="13" cy="7.5" r="1" fill="white"/>
<circle cx="16" cy="7.5" r="1" fill="white"/>
<circle cx="19" cy="7.5" r="1" fill="white"/>
</svg>
