<svg width="26" height="20" viewBox="0 0 26 20" fill="none" xmlns="http://www.w3.org/2000/svg">
<path d="M1 12.2764L0.4 12.2764V12.2763L1 12.2764ZM4.26953 16.9443L4.47458 16.3805C4.78006 16.4915 4.94153 16.8257 4.83874 17.1341L4.26953 16.9443ZM4.0459 17.6152L3.47666 17.4256L3.47669 17.4255L4.0459 17.6152ZM5.70117 18.6387L6.12544 19.0629L6.12526 19.0631L5.70117 18.6387ZM7.09668 17.2432L6.67242 16.8189C6.78494 16.7064 6.93755 16.6432 7.09668 16.6432V17.2432ZM10.2236 17.2432L10.2237 17.8432H10.2236V17.2432ZM15.1895 12.2764L15.7895 12.2763V12.2764L15.1895 12.2764ZM10.2236 7.31055V6.71055H10.2237L10.2236 7.31055ZM5.9668 7.31055V7.91055C3.55543 7.91055 1.60019 9.86527 1.6 12.2764L1 12.2764L0.4 12.2763C0.400241 9.2023 2.8929 6.71055 5.9668 6.71055V7.31055ZM1 12.2764L1.6 12.2763C1.60017 14.1624 2.79686 15.7704 4.47458 16.3805L4.26953 16.9443L4.06449 17.5082C1.92802 16.7313 0.400216 14.6833 0.4 12.2764L1 12.2764ZM4.26953 16.9443L4.83874 17.1341L4.61511 17.805L4.0459 17.6152L3.47669 17.4255L3.70032 16.7546L4.26953 16.9443ZM4.0459 17.6152L4.61514 17.8049C4.48173 18.2053 4.97873 18.5123 5.27708 18.2142L5.70117 18.6387L6.12526 19.0631C4.93131 20.2561 2.94316 19.0269 3.47666 17.4256L4.0459 17.6152ZM5.70117 18.6387L5.27691 18.2144L6.67242 16.8189L7.09668 17.2432L7.52094 17.6674L6.12544 19.0629L5.70117 18.6387ZM7.09668 17.2432V16.6432H10.2236V17.2432V17.8432H7.09668V17.2432ZM10.2236 17.2432L10.2235 16.6432C12.6344 16.6428 14.5892 14.6874 14.5895 12.2763L15.1895 12.2764L15.7895 12.2764C15.7892 15.3499 13.2974 17.8427 10.2237 17.8432L10.2236 17.2432ZM15.1895 12.2764L14.5895 12.2764C14.5893 9.86548 12.6346 7.91093 10.2235 7.91055L10.2236 7.31055L10.2237 6.71055C13.2972 6.71103 15.7892 9.20262 15.7895 12.2763L15.1895 12.2764ZM10.2236 7.31055V7.91055H5.9668V7.31055V6.71055H10.2236V7.31055Z" fill="#9E9E9E"/>
<path d="M18.4648 1.5C21.7903 1.50023 24.4862 4.19604 24.4863 7.52148C24.4863 10.016 22.9692 12.1554 20.8076 13.0693L21.082 13.6162C21.5406 14.5334 20.486 15.4642 19.6328 14.8955L17.6035 13.543H13.3027C9.97717 13.5428 7.28125 10.8471 7.28125 7.52148C7.28137 4.19598 9.97724 1.50015 13.3027 1.5H18.4648Z" fill="white"/>
<path d="M18.4648 1.5L18.4649 0.9H18.4648V1.5ZM24.4863 7.52148H25.0863V7.52146L24.4863 7.52148ZM20.8076 13.0693L20.574 12.5167C20.4212 12.5813 20.3019 12.7063 20.2446 12.862C20.1873 13.0177 20.1969 13.1901 20.2713 13.3384L20.8076 13.0693ZM21.082 13.6162L21.6187 13.3479L21.6183 13.3471L21.082 13.6162ZM19.6328 14.8955L19.3 15.3948L19.3001 15.3948L19.6328 14.8955ZM17.6035 13.543L17.9363 13.0437C17.8377 12.978 17.7219 12.943 17.6035 12.943V13.543ZM13.3027 13.543L13.3027 14.143H13.3027V13.543ZM7.28125 7.52148L6.68125 7.52146V7.52148H7.28125ZM13.3027 1.5V0.9H13.3027L13.3027 1.5ZM18.4648 1.5L18.4648 2.1C21.4589 2.10021 23.8862 4.52743 23.8863 7.52151L24.4863 7.52148L25.0863 7.52146C25.0862 3.86464 22.1216 0.900258 18.4649 0.9L18.4648 1.5ZM24.4863 7.52148H23.8863C23.8863 9.76632 22.5215 11.6932 20.574 12.5167L20.8076 13.0693L21.0413 13.622C23.417 12.6175 25.0863 10.2656 25.0863 7.52148H24.4863ZM20.8076 13.0693L20.2713 13.3384L20.5458 13.8853L21.082 13.6162L21.6183 13.3471L21.3439 12.8002L20.8076 13.0693ZM21.082 13.6162L20.5454 13.8845C20.7287 14.2511 20.3071 14.6238 19.9656 14.3962L19.6328 14.8955L19.3001 15.3948C20.665 16.3045 22.3525 14.8156 21.6187 13.3479L21.082 13.6162ZM19.6328 14.8955L19.9656 14.3962L17.9363 13.0437L17.6035 13.543L17.2708 14.0422L19.3 15.3948L19.6328 14.8955ZM17.6035 13.543V12.943H13.3027V13.543V14.143H17.6035V13.543ZM13.3027 13.543L13.3028 12.943C10.3085 12.9428 7.88125 10.5157 7.88125 7.52148H7.28125H6.68125C6.68125 11.1785 9.64582 14.1428 13.3027 14.143L13.3027 13.543ZM7.28125 7.52148L7.88125 7.52151C7.88135 4.52736 10.3086 2.10013 13.3028 2.1L13.3027 1.5L13.3027 0.9C9.64587 0.900162 6.68138 3.8646 6.68125 7.52146L7.28125 7.52148ZM13.3027 1.5V2.1H18.4648V1.5V0.9H13.3027V1.5Z" fill="#9E9E9E"/>
<circle cx="13" cy="7.5" r="1" fill="#9E9E9E"/>
<circle cx="16" cy="7.5" r="1" fill="#9E9E9E"/>
<circle cx="19" cy="7.5" r="1" fill="#9E9E9E"/>
</svg>
