<svg width="26" height="17" viewBox="0 0 26 17" fill="none" xmlns="http://www.w3.org/2000/svg">
<mask id="path-1-inside-1_40000296_4505" fill="white">
<path d="M14.0674 0C17.1288 9.11067e-05 19.6401 2.45784 19.9041 5.592C19.9267 5.86023 20.1407 6.07729 20.4081 6.10777C23.1314 6.41814 25.2471 8.72987 25.2471 11.5361C25.2469 14.4171 23.0166 16.7749 20.1887 16.9828C20.1842 16.9831 20.1807 16.9869 20.1807 16.9914V16.9914C20.1807 16.9961 20.1768 17 20.1721 17H6.78829C6.7844 17 6.78125 16.9968 6.78125 16.993V16.993C6.78125 16.9892 6.77831 16.9862 6.77459 16.9859C3.27446 16.7768 0.5 13.874 0.5 10.3213C0.500075 6.63296 3.4904 3.64271 7.17871 3.64258C7.53396 3.64258 7.88267 3.67127 8.22287 3.72525C8.46636 3.76389 8.70806 3.63531 8.81368 3.41255C9.77253 1.39008 11.765 0 14.0674 0Z"/>
</mask>
<path d="M14.0674 0L14.0674 -1.2H14.0674V0ZM25.2471 11.5361L26.4471 11.5362V11.5361H25.2471ZM0.5 10.3213L-0.7 10.3213V10.3213H0.5ZM7.17871 3.64258L7.17871 2.44258L7.17867 2.44258L7.17871 3.64258ZM8.22287 3.72525L8.0348 4.91042L8.22287 3.72525ZM8.81368 3.41255L7.72937 2.89848L8.81368 3.41255ZM20.1887 16.9828L20.2767 18.1796L20.1887 16.9828ZM6.77459 16.9859L6.84615 15.7881L6.77459 16.9859ZM19.9041 5.592L21.0999 5.49126L19.9041 5.592ZM14.0674 0L14.0673 1.2C16.454 1.20007 18.4923 3.12782 18.7084 5.69273L19.9041 5.592L21.0999 5.49126C20.7879 1.78787 17.8036 -1.19989 14.0674 -1.2L14.0674 0ZM20.4081 6.10777L20.2723 7.30006C22.3964 7.54214 24.0471 9.34718 24.0471 11.5361H25.2471H26.4471C26.4471 8.11255 23.8664 5.29414 20.544 4.91549L20.4081 6.10777ZM25.2471 11.5361L24.0471 11.536C24.0469 13.783 22.3072 15.6239 20.1007 15.786L20.1887 16.9828L20.2767 18.1796C23.7261 17.926 26.4468 15.0512 26.4471 11.5362L25.2471 11.5361ZM20.1721 17V15.8H6.78829V17V18.2H20.1721V17ZM6.77459 16.9859L6.84615 15.7881C3.97547 15.6166 1.7 13.2346 1.7 10.3213H0.5H-0.7C-0.7 14.5133 2.57345 17.9371 6.70304 18.1838L6.77459 16.9859ZM0.5 10.3213L1.7 10.3213C1.70006 7.29573 4.15313 4.84269 7.17875 4.84258L7.17871 3.64258L7.17867 2.44258C2.82766 2.44273 -0.699911 5.9702 -0.7 10.3213L0.5 10.3213ZM7.17871 3.64258V4.84258C7.46923 4.84258 7.75505 4.86603 8.0348 4.91042L8.22287 3.72525L8.41094 2.54008C8.01028 2.4765 7.59869 2.44258 7.17871 2.44258V3.64258ZM8.81368 3.41255L9.89799 3.92662C10.6758 2.28606 12.2682 1.2 14.0674 1.2V0V-1.2C11.2618 -1.2 8.86928 0.494105 7.72937 2.89848L8.81368 3.41255ZM8.22287 3.72525L8.0348 4.91042C8.8084 5.03318 9.56596 4.62696 9.89799 3.92662L8.81368 3.41255L7.72937 2.89848C7.85017 2.64366 8.12431 2.4946 8.41094 2.54008L8.22287 3.72525ZM6.78829 17V15.8C7.44721 15.8 7.98125 16.3342 7.98125 16.993H6.78125H5.58125C5.58125 17.6595 6.12159 18.2 6.78829 18.2V17ZM20.1807 16.9914H18.9807C18.9807 16.3334 19.5141 15.8 20.1721 15.8V17V18.2C20.8396 18.2 21.3807 17.6589 21.3807 16.9914H20.1807ZM20.1887 16.9828L20.1007 15.786C19.4769 15.8319 18.9807 16.3507 18.9807 16.9914H20.1807H21.3807C21.3807 17.6231 20.8914 18.1344 20.2767 18.1796L20.1887 16.9828ZM6.78125 16.993H7.98125C7.98125 16.3466 7.47595 15.8257 6.84615 15.7881L6.77459 16.9859L6.70304 18.1838C6.08068 18.1466 5.58125 17.6319 5.58125 16.993H6.78125ZM19.9041 5.592L18.7084 5.69273C18.7798 6.54005 19.4457 7.20585 20.2723 7.30006L20.4081 6.10777L20.544 4.91549C20.8357 4.94873 21.0737 5.18041 21.0999 5.49126L19.9041 5.592Z" fill="#9E9E9E" mask="url(#path-1-inside-1_40000296_4505)"/>
<circle cx="11.4" cy="8.65" r="0.65" fill="#9E9E9E"/>
<circle cx="14.4" cy="8.65" r="0.65" fill="#9E9E9E"/>
<path d="M11.5 10.5C12 11 13.3 11.7 14.5 10.5" stroke="#9E9E9E" stroke-width="1.2" stroke-linecap="round"/>
</svg>
