<svg width="26" height="17" viewBox="0 0 26 17" fill="none" xmlns="http://www.w3.org/2000/svg">
<mask id="path-1-inside-1_40000296_4578" fill="white">
<path d="M14.0674 0C17.1288 9.11067e-05 19.6401 2.45784 19.9041 5.592C19.9267 5.86023 20.1407 6.07729 20.4081 6.10777C23.1314 6.41814 25.2471 8.72987 25.2471 11.5361C25.2469 14.4171 23.0166 16.7749 20.1887 16.9828C20.1842 16.9831 20.1807 16.9869 20.1807 16.9914C20.1807 16.9961 20.1768 17 20.1721 17H6.78829C6.7844 17 6.78125 16.9968 6.78125 16.993C6.78125 16.9892 6.77831 16.9862 6.77459 16.9859C3.27446 16.7768 0.5 13.874 0.5 10.3213C0.500075 6.63296 3.4904 3.64271 7.17871 3.64258C7.53396 3.64258 7.88267 3.67127 8.22287 3.72525C8.46636 3.76389 8.70807 3.63531 8.81368 3.41255C9.77253 1.39008 11.765 0 14.0674 0Z"/>
</mask>
<path d="M14.0674 0C17.1288 9.11067e-05 19.6401 2.45784 19.9041 5.592C19.9267 5.86023 20.1407 6.07729 20.4081 6.10777C23.1314 6.41814 25.2471 8.72987 25.2471 11.5361C25.2469 14.4171 23.0166 16.7749 20.1887 16.9828C20.1842 16.9831 20.1807 16.9869 20.1807 16.9914C20.1807 16.9961 20.1768 17 20.1721 17H6.78829C6.7844 17 6.78125 16.9968 6.78125 16.993C6.78125 16.9892 6.77831 16.9862 6.77459 16.9859C3.27446 16.7768 0.5 13.874 0.5 10.3213C0.500075 6.63296 3.4904 3.64271 7.17871 3.64258C7.53396 3.64258 7.88267 3.67127 8.22287 3.72525C8.46636 3.76389 8.70807 3.63531 8.81368 3.41255C9.77253 1.39008 11.765 0 14.0674 0Z" fill="#616161"/>
<path d="M14.0674 0L14.0674 -1.5H14.0674V0ZM25.2471 11.5361L26.7471 11.5362V11.5361H25.2471ZM0.5 10.3213L-1 10.3213V10.3213H0.5ZM7.17871 3.64258V2.14258H7.17866L7.17871 3.64258ZM8.22287 3.72525L7.98779 5.20672L8.22287 3.72525ZM8.81368 3.41255L7.45829 2.76996L8.81368 3.41255ZM20.1887 16.9828L20.2986 18.4788L20.1887 16.9828ZM6.77459 16.9859L6.86404 15.4886L6.77459 16.9859ZM19.9041 5.592L18.4094 5.71791L19.9041 5.592ZM14.0674 0L14.0673 1.5C16.2853 1.50007 18.2054 3.29531 18.4094 5.71791L19.9041 5.592L21.3988 5.46608C21.0749 1.62037 17.9722 -1.49988 14.0674 -1.5L14.0674 0ZM20.4081 6.10777L20.2383 7.59813C22.2126 7.82314 23.7471 9.50151 23.7471 11.5361H25.2471H26.7471C26.7471 7.95823 24.0501 5.01314 20.578 4.61742L20.4081 6.10777ZM25.2471 11.5361L23.7471 11.536C23.7469 13.6245 22.1298 15.3361 20.0787 15.4869L20.1887 16.9828L20.2986 18.4788C23.9034 18.2138 26.7468 15.2097 26.7471 11.5362L25.2471 11.5361ZM20.1721 17V15.5H6.78829V17V18.5H20.1721V17ZM6.77459 16.9859L6.86404 15.4886C4.15072 15.3265 2 13.0748 2 10.3213H0.5H-1C-1 14.6731 2.3982 18.2272 6.68515 18.4833L6.77459 16.9859ZM0.5 10.3213L2 10.3213C2.00006 7.46142 4.31881 5.14268 7.17876 5.14258L7.17871 3.64258L7.17866 2.14258C2.66198 2.14274 -0.999908 5.8045 -1 10.3213L0.5 10.3213ZM7.17871 3.64258V5.14258C7.45305 5.14258 7.72315 5.16472 7.98779 5.20672L8.22287 3.72525L8.45796 2.24379C8.04219 2.17781 7.61487 2.14258 7.17871 2.14258V3.64258ZM8.81368 3.41255L10.1691 4.05514C10.9016 2.51006 12.394 1.5 14.0674 1.5V0V-1.5C11.136 -1.5 8.64347 0.27011 7.45829 2.76996L8.81368 3.41255ZM8.22287 3.72525L7.98779 5.20672C8.89391 5.35051 9.78043 4.87487 10.1691 4.05514L8.81368 3.41255L7.45829 2.76996C7.6357 2.39575 8.0388 2.17727 8.45796 2.24379L8.22287 3.72525ZM6.78829 17V15.5C7.61291 15.5 8.28125 16.1685 8.28125 16.993H6.78125H5.28125C5.28125 17.8252 5.95589 18.5 6.78829 18.5V17ZM20.1807 16.9914H18.6807C18.6807 16.1677 19.3484 15.5 20.1721 15.5V17V18.5C21.0052 18.5 21.6807 17.8246 21.6807 16.9914H20.1807ZM20.1887 16.9828L20.0787 15.4869C19.3001 15.5441 18.6807 16.1916 18.6807 16.9914H20.1807H21.6807C21.6807 17.7822 21.0683 18.4222 20.2986 18.4788L20.1887 16.9828ZM6.78125 16.993H8.28125C8.28125 16.1859 7.65036 15.5356 6.86404 15.4886L6.77459 16.9859L6.68515 18.4833C5.90627 18.4367 5.28125 17.7926 5.28125 16.993H6.78125ZM19.9041 5.592L18.4094 5.71791C18.493 6.71001 19.2719 7.48799 20.2383 7.59813L20.4081 6.10777L20.578 4.61742C21.0094 4.66659 21.3605 5.01045 21.3988 5.46608L19.9041 5.592Z" fill="#616161" mask="url(#path-1-inside-1_40000296_4578)"/>
<circle cx="11.4" cy="8.65" r="0.65" fill="white"/>
<circle cx="14.4" cy="8.65" r="0.65" fill="white"/>
<path d="M11.5 10.5C12 11 13.3 11.7 14.5 10.5" stroke="white" stroke-width="1.2" stroke-linecap="round"/>
</svg>
