<svg width="20" height="22" viewBox="0 0 20 22" fill="none" xmlns="http://www.w3.org/2000/svg">
<path d="M1.5 2.20001V20.0333C1.5 20.5856 1.94771 21.0333 2.5 21.0333H13.6823C13.9496 21.0333 14.2057 20.9264 14.3936 20.7363L18.7113 16.3672C18.8963 16.18 19 15.9274 19 15.6643V2.20001C19 1.64773 18.5523 1.20001 18 1.20001H2.5C1.94772 1.20001 1.5 1.64773 1.5 2.20001Z" fill="#616161" stroke="#616161" stroke-width="1.2"/>
<path d="M5.58337 7.03333H14.9167" stroke="white" stroke-width="1.2" stroke-linecap="round"/>
<path d="M5.58344 10.5333H14.9168" stroke="white" stroke-width="1.2" stroke-linecap="round"/>
<path d="M5.58344 14.0333H12.5834" stroke="white" stroke-width="1.2" stroke-linecap="round"/>
<path d="M15.5 16.5H19.5L14.5 21.5V17.5C14.5 16.9477 14.9477 16.5 15.5 16.5Z" fill="#D9D9D9"/>
</svg>
