<svg width="20" height="20" viewBox="0 0 20 20" fill="none" xmlns="http://www.w3.org/2000/svg">
<g clip-path="url(#clip0_40000006_3676)">
<path d="M6.96719 0.657779C4.96888 1.35101 3.24554 2.66679 2.05031 4.41184C0.855067 6.1569 0.250931 8.23925 0.326635 10.353C0.40234 12.4668 1.15389 14.5006 2.47091 16.1557C3.78792 17.8108 5.60097 18.9999 7.64376 19.5484C9.29989 19.9757 11.035 19.9945 12.7 19.6031C14.2083 19.2643 15.6028 18.5396 16.7469 17.5C17.9376 16.3849 18.8019 14.9663 19.2469 13.3968C19.7305 11.6901 19.8166 9.89517 19.4984 8.14997H10.1984V12.0078H15.5844C15.4767 12.6231 15.2461 13.2103 14.9062 13.7344C14.5663 14.2585 14.1242 14.7086 13.6063 15.0578C12.9486 15.4928 12.2072 15.7855 11.4297 15.9172C10.6499 16.0621 9.85009 16.0621 9.07032 15.9172C8.27999 15.7538 7.53235 15.4276 6.87501 14.9593C5.81899 14.2118 5.02606 13.1498 4.60938 11.925C4.18565 10.6771 4.18565 9.32435 4.60938 8.07653C4.90598 7.20187 5.39631 6.40549 6.04376 5.74684C6.78468 4.97926 7.72271 4.43059 8.75494 4.16102C9.78716 3.89146 10.8737 3.91142 11.8953 4.21872C12.6934 4.4637 13.4232 4.89174 14.0266 5.46872C14.6339 4.86455 15.2401 4.25882 15.8453 3.65153C16.1578 3.32497 16.4984 3.01403 16.8063 2.67965C15.8853 1.82259 14.8042 1.15568 13.625 0.717154C11.4777 -0.0625494 9.1281 -0.0835031 6.96719 0.657779Z" fill="white"/>
<path d="M6.96718 0.657806C9.12791 -0.08398 11.4775 -0.0635778 13.625 0.715618C14.8044 1.15712 15.885 1.82724 16.8047 2.68749C16.4922 3.02187 16.1625 3.33437 15.8437 3.65937C15.2375 4.26458 14.6318 4.8677 14.0266 5.46874C13.4232 4.89177 12.6934 4.46373 11.8953 4.21874C10.874 3.91037 9.78752 3.88926 8.75502 4.15772C7.72253 4.42618 6.78392 4.97384 6.04218 5.74062C5.39473 6.39927 4.90441 7.19564 4.60781 8.07031L1.36874 5.56249C2.52813 3.26337 4.53554 1.50472 6.96718 0.657806Z" fill="#E33629"/>
<path d="M0.509374 8.04688C0.683469 7.18405 0.972504 6.34848 1.36875 5.5625L4.60781 8.07656C4.18408 9.32438 4.18408 10.6772 4.60781 11.925C3.52864 12.7583 2.44896 13.5958 1.36875 14.4375C0.376796 12.463 0.0742684 10.2133 0.509374 8.04688Z" fill="#F8BD00"/>
<path d="M10.1984 8.14844H19.4984C19.8166 9.89365 19.7305 11.6885 19.2469 13.3953C18.8019 14.9648 17.9376 16.3834 16.7469 17.4984C15.7016 16.6828 14.6516 15.8734 13.6062 15.0578C14.1245 14.7082 14.5668 14.2576 14.9067 13.733C15.2466 13.2084 15.4771 12.6205 15.5844 12.0047H10.1984C10.1969 10.7203 10.1984 9.43437 10.1984 8.14844Z" fill="#587DBD"/>
<path d="M1.36719 14.4375C2.4474 13.6042 3.52708 12.7667 4.60625 11.925C5.02376 13.1504 5.81782 14.2124 6.875 14.9594C7.53439 15.4255 8.28364 15.749 9.075 15.9094C9.85478 16.0544 10.6546 16.0544 11.4344 15.9094C12.2119 15.7778 12.9533 15.4851 13.6109 15.05C14.6562 15.8657 15.7063 16.675 16.7516 17.4907C15.6076 18.5309 14.2132 19.2561 12.7047 19.5954C11.0397 19.9868 9.30457 19.968 7.64844 19.5407C6.3386 19.1909 5.11512 18.5744 4.05469 17.7297C2.93228 16.8386 2.01556 15.7156 1.36719 14.4375Z" fill="#319F43"/>
</g>
<defs>
<clipPath id="clip0_40000006_3676">
<rect width="20" height="20" fill="white"/>
</clipPath>
</defs>
</svg>
