<svg width="24" height="22" viewBox="0 0 24 22" fill="none" xmlns="http://www.w3.org/2000/svg">
<path d="M11.5744 1.25171C11.9472 0.93646 12.4936 0.936329 12.8664 1.25171L22.6945 9.56812C23.4056 10.1698 22.9804 11.3316 22.049 11.3318H19.9484C19.9494 11.3568 19.9523 11.3818 19.9523 11.407V18.9998C19.9522 20.1041 19.0567 20.9996 17.9523 20.9998H15.8C15.2478 20.9996 14.8 20.552 14.8 19.9998V16.3416C14.7999 15.7893 14.3522 15.3416 13.8 15.3416H10.6476C10.0955 15.3417 9.64773 15.7894 9.64764 16.3416V19.9998C9.64764 20.552 9.19993 20.9998 8.64764 20.9998H6.4953C5.39093 20.9996 4.49544 20.1041 4.4953 18.9998V11.407C4.4953 11.3818 4.49828 11.3568 4.49921 11.3318H2.39178C1.46022 11.3318 1.03416 10.1699 1.7453 9.56812L11.5744 1.25171Z" fill="#616161"/>
<path d="M11.5744 1.25171L11.187 0.793544L11.1869 0.793665L11.5744 1.25171ZM12.8664 1.25171L13.254 0.793684L13.2539 0.79366L12.8664 1.25171ZM22.6945 9.56812L22.3069 10.0261L22.307 10.0261L22.6945 9.56812ZM22.049 11.3318V11.9318H22.0491L22.049 11.3318ZM19.9484 11.3318V10.7318H19.3258L19.3488 11.354L19.9484 11.3318ZM19.9523 11.407H20.5523V11.4069L19.9523 11.407ZM19.9523 18.9998L20.5523 18.9998V18.9998H19.9523ZM17.9523 20.9998V21.5998H17.9524L17.9523 20.9998ZM15.8 20.9998L15.7998 21.5998H15.8V20.9998ZM14.8 16.3416H15.4V16.3415L14.8 16.3416ZM10.6476 15.3416V14.7416H10.6475L10.6476 15.3416ZM9.64764 16.3416L9.04764 16.3415V16.3416H9.64764ZM6.4953 20.9998L6.49523 21.5998H6.4953V20.9998ZM4.4953 18.9998H3.8953L3.8953 18.9998L4.4953 18.9998ZM4.4953 11.407L3.8953 11.4069V11.407H4.4953ZM4.49921 11.3318L5.09879 11.354L5.12187 10.7318H4.49921V11.3318ZM1.7453 9.56812L1.35775 9.11007L1.35773 9.11008L1.7453 9.56812ZM11.5744 1.25171L11.9618 1.70987C12.1111 1.58363 12.3299 1.58375 12.4788 1.70976L12.8664 1.25171L13.2539 0.79366C12.6574 0.288906 11.7833 0.289288 11.187 0.793544L11.5744 1.25171ZM12.8664 1.25171L12.4788 1.70973L22.3069 10.0261L22.6945 9.56812L23.0821 9.11009L13.254 0.793684L12.8664 1.25171ZM22.6945 9.56812L22.307 10.0261C22.5917 10.2671 22.421 10.7317 22.0489 10.7318L22.049 11.3318L22.0491 11.9318C23.5399 11.9315 24.2195 10.0725 23.0821 9.11008L22.6945 9.56812ZM22.049 11.3318V10.7318H19.9484V11.3318V11.9318H22.049V11.3318ZM19.9484 11.3318L19.3488 11.354C19.3494 11.3682 19.3501 11.3806 19.3507 11.3898C19.351 11.3943 19.3513 11.3986 19.3515 11.402C19.3518 11.4057 19.352 11.4079 19.3521 11.4104C19.3529 11.421 19.3523 11.4163 19.3523 11.407L19.9523 11.407L20.5523 11.4069C20.5523 11.3725 20.5503 11.3426 20.5493 11.3282C20.5486 11.3176 20.5485 11.3169 20.5481 11.3113C20.5479 11.3079 20.548 11.3079 20.548 11.3095L19.9484 11.3318ZM19.9523 11.407H19.3523V18.9998H19.9523H20.5523V11.407H19.9523ZM19.9523 18.9998L19.3523 18.9997C19.3522 19.7727 18.7253 20.3996 17.9522 20.3998L17.9523 20.9998L17.9524 21.5998C19.388 21.5995 20.5521 20.4355 20.5523 18.9998L19.9523 18.9998ZM17.9523 20.9998V20.3998H15.8V20.9998V21.5998H17.9523V20.9998ZM15.8 20.9998L15.8001 20.3998C15.5791 20.3997 15.4 20.2204 15.4 19.9998H14.8H14.2C14.2 20.8835 14.9166 21.5995 15.7998 21.5998L15.8 20.9998ZM14.8 19.9998H15.4V16.3416H14.8H14.2V19.9998H14.8ZM14.8 16.3416L15.4 16.3415C15.3999 15.458 14.6837 14.7416 13.8 14.7416V15.3416V15.9416C14.0208 15.9416 14.2 16.1206 14.2 16.3416L14.8 16.3416ZM13.8 15.3416V14.7416H10.6476V15.3416V15.9416H13.8V15.3416ZM10.6476 15.3416L10.6475 14.7416C9.76418 14.7418 9.04778 15.458 9.04764 16.3415L9.64764 16.3416L10.2476 16.3416C10.2477 16.1209 10.4269 15.9416 10.6478 15.9416L10.6476 15.3416ZM9.64764 16.3416H9.04764V19.9998H9.64764H10.2476V16.3416H9.64764ZM9.64764 19.9998H9.04764C9.04764 20.2207 8.86856 20.3998 8.64764 20.3998V20.9998V21.5998C9.5313 21.5998 10.2476 20.8834 10.2476 19.9998H9.64764ZM8.64764 20.9998V20.3998H6.4953V20.9998V21.5998H8.64764V20.9998ZM6.4953 20.9998L6.49537 20.3998C5.72232 20.3997 5.0954 19.7727 5.0953 18.9997L4.4953 18.9998L3.8953 18.9998C3.89548 20.4355 5.05954 21.5996 6.49523 21.5998L6.4953 20.9998ZM4.4953 18.9998H5.0953V11.407H4.4953H3.8953V18.9998H4.4953ZM4.4953 11.407L5.0953 11.407C5.0953 11.4163 5.09477 11.421 5.0955 11.4104C5.09567 11.4079 5.09582 11.4057 5.09609 11.402C5.09632 11.3986 5.09662 11.3943 5.09692 11.3897C5.09752 11.3806 5.09827 11.3682 5.09879 11.354L4.49921 11.3318L3.89962 11.3096C3.89968 11.3079 3.89971 11.3079 3.89949 11.3113C3.89912 11.3169 3.89905 11.3176 3.89832 11.3282C3.89732 11.3426 3.8953 11.3725 3.8953 11.4069L4.4953 11.407ZM4.49921 11.3318V10.7318H2.39178V11.3318V11.9318H4.49921V11.3318ZM2.39178 11.3318V10.7318C2.01855 10.7318 1.84888 10.2664 2.13287 10.0261L1.7453 9.56812L1.35773 9.11008C0.21944 10.0733 0.901898 11.9318 2.39178 11.9318V11.3318ZM1.7453 9.56812L2.13285 10.0262L11.962 1.70975L11.5744 1.25171L11.1869 0.793665L1.35775 9.11007L1.7453 9.56812Z" fill="#616161"/>
</svg>
