<svg width="24" height="22" viewBox="0 0 24 22" fill="none" xmlns="http://www.w3.org/2000/svg">
<path d="M11.5745 1.25168L11.1871 0.79349L11.1869 0.793635L11.5745 1.25168ZM12.8665 1.25168L13.254 0.793654L13.254 0.793647L12.8665 1.25168ZM22.6946 9.56808L22.307 10.0261L22.307 10.0261L22.6946 9.56808ZM22.0491 11.3318V11.9318H22.0492L22.0491 11.3318ZM19.9485 11.3318V10.7318H19.3258L19.3489 11.354L19.9485 11.3318ZM19.9524 11.407H20.5524V11.4069L19.9524 11.407ZM19.9524 18.9997L20.5524 18.9998V18.9997H19.9524ZM17.9524 20.9997V21.5997H17.9525L17.9524 20.9997ZM15.8001 20.9997L15.8 21.5997H15.8001V20.9997ZM14.8001 16.3415H15.4001V16.3414L14.8001 16.3415ZM10.6477 15.3415V14.7415H10.6476L10.6477 15.3415ZM9.64772 16.3415L9.04772 16.3414V16.3415H9.64772ZM6.49537 20.9997L6.49532 21.5997H6.49537V20.9997ZM4.49537 18.9997H3.89537V18.9998L4.49537 18.9997ZM4.49537 11.407L3.89537 11.4069V11.407H4.49537ZM4.49928 11.3318L5.09887 11.354L5.12194 10.7318H4.49928V11.3318ZM1.74537 9.56808L1.35782 9.11004L1.35781 9.11005L1.74537 9.56808ZM11.5745 1.25168L11.9619 1.70987C12.1112 1.58359 12.33 1.58375 12.4789 1.70971L12.8665 1.25168L13.254 0.793647C12.6574 0.288816 11.7834 0.289332 11.1871 0.79349L11.5745 1.25168ZM12.8665 1.25168L12.4789 1.7097L22.307 10.0261L22.6946 9.56808L23.0822 9.11006L13.254 0.793654L12.8665 1.25168ZM22.6946 9.56808L22.307 10.0261C22.5917 10.267 22.4211 10.7317 22.0489 10.7318L22.0491 11.3318L22.0492 11.9318C23.5398 11.9314 24.2196 10.0725 23.0822 9.11005L22.6946 9.56808ZM22.0491 11.3318V10.7318H19.9485V11.3318V11.9318H22.0491V11.3318ZM19.9485 11.3318L19.3489 11.354C19.3494 11.3682 19.3502 11.3806 19.3508 11.3897C19.3511 11.3943 19.3514 11.3986 19.3516 11.4019C19.3519 11.4057 19.352 11.4079 19.3522 11.4104C19.3529 11.421 19.3524 11.4162 19.3524 11.407L19.9524 11.407L20.5524 11.4069C20.5524 11.3725 20.5504 11.3426 20.5494 11.3281C20.5487 11.3176 20.5486 11.3169 20.5482 11.3113C20.548 11.3079 20.548 11.3079 20.5481 11.3095L19.9485 11.3318ZM19.9524 11.407H19.3524V18.9997H19.9524H20.5524V11.407H19.9524ZM19.9524 18.9997L19.3524 18.9996C19.3523 19.7726 18.7254 20.3996 17.9523 20.3997L17.9524 20.9997L17.9525 21.5997C19.3881 21.5995 20.5522 20.4355 20.5524 18.9998L19.9524 18.9997ZM17.9524 20.9997V20.3997H15.8001V20.9997V21.5997H17.9524V20.9997ZM15.8001 20.9997L15.8002 20.3997C15.5791 20.3997 15.4001 20.2205 15.4001 19.9997H14.8001H14.2001C14.2001 20.8834 14.9166 21.5996 15.8 21.5997L15.8001 20.9997ZM14.8001 19.9997H15.4001V16.3415H14.8001H14.2001V19.9997H14.8001ZM14.8001 16.3415L15.4001 16.3414C15.3999 15.458 14.6838 14.7415 13.8001 14.7415V15.3415V15.9415C14.0208 15.9415 14.2 16.1206 14.2001 16.3416L14.8001 16.3415ZM13.8001 15.3415V14.7415H10.6477V15.3415V15.9415H13.8001V15.3415ZM10.6477 15.3415L10.6476 14.7415C9.76418 14.7417 9.04785 15.458 9.04772 16.3414L9.64772 16.3415L10.2477 16.3416C10.2477 16.1208 10.4269 15.9416 10.6478 15.9415L10.6477 15.3415ZM9.64772 16.3415H9.04772V19.9997H9.64772H10.2477V16.3415H9.64772ZM9.64772 19.9997H9.04772C9.04772 20.2206 8.86863 20.3997 8.64772 20.3997V20.9997V21.5997C9.53137 21.5997 10.2477 20.8834 10.2477 19.9997H9.64772ZM8.64772 20.9997V20.3997H6.49537V20.9997V21.5997H8.64772V20.9997ZM6.49537 20.9997L6.49542 20.3997C5.72238 20.3997 5.09547 19.7728 5.09537 18.9996L4.49537 18.9997L3.89537 18.9998C3.89555 20.4355 5.05956 21.5996 6.49532 21.5997L6.49537 20.9997ZM4.49537 18.9997H5.09537V11.407H4.49537H3.89537V18.9997H4.49537ZM4.49537 11.407L5.09537 11.407C5.09537 11.4162 5.09484 11.421 5.09557 11.4104C5.09574 11.4079 5.0959 11.4057 5.09616 11.4019C5.0964 11.3986 5.09669 11.3943 5.09699 11.3897C5.09759 11.3806 5.09834 11.3681 5.09887 11.354L4.49928 11.3318L3.89969 11.3095C3.89975 11.3079 3.89978 11.3079 3.89956 11.3113C3.89919 11.3169 3.89912 11.3176 3.89839 11.3281C3.8974 11.3426 3.89537 11.3724 3.89537 11.4069L4.49537 11.407ZM4.49928 11.3318V10.7318H2.39186V11.3318V11.9318H4.49928V11.3318ZM2.39186 11.3318V10.7318C2.01862 10.7318 1.84895 10.2664 2.13294 10.0261L1.74537 9.56808L1.35781 9.11005C0.219511 10.0732 0.90197 11.9318 2.39186 11.9318V11.3318ZM1.74537 9.56808L2.13292 10.0261L11.962 1.70972L11.5745 1.25168L11.1869 0.793635L1.35782 9.11004L1.74537 9.56808Z" fill="#9E9E9E"/>
</svg>
