<svg width="14" height="14" viewBox="0 0 14 14" fill="none" xmlns="http://www.w3.org/2000/svg">
<path d="M6.99951 0.899902C7.28925 0.899902 7.53122 1.10531 7.5874 1.37842L7.59912 1.49951V6.3999H12.4995L12.6206 6.41162C12.8938 6.4676 13.0989 6.70979 13.0991 6.99951C13.0991 7.28941 12.8939 7.5314 12.6206 7.5874L12.4995 7.59912H7.59912V12.4995C7.59912 12.8309 7.33088 13.0991 6.99951 13.0991C6.66832 13.0989 6.3999 12.8308 6.3999 12.4995V7.59912H1.49951C1.16832 7.59891 0.899902 7.33075 0.899902 6.99951C0.900113 6.66845 1.16845 6.40011 1.49951 6.3999H6.3999V1.49951L6.41162 1.37842C6.46772 1.10535 6.70989 0.900086 6.99951 0.899902Z" fill="white"/>
</svg>
