<svg width="39" height="38" viewBox="0 0 39 38" fill="none" xmlns="http://www.w3.org/2000/svg">
<circle cx="19.5" cy="19" r="18.5" fill="white" stroke="#E7ECEA"/>
<rect width="24" height="24" transform="translate(7.5 7)" fill="white"/>
<path d="M22.4697 11C22.9026 11 23.2867 11.2789 23.4209 11.6904L24.0732 13.6904C24.107 13.7941 24.1209 13.8983 24.1211 14H27.5C28.6046 14 29.5 14.8954 29.5 16V25C29.5 26.1046 28.6046 27 27.5 27H11.5C10.3954 27 9.5 26.1046 9.5 25V16C9.5 14.8954 10.3954 14 11.5 14H14.8789C14.8791 13.8983 14.893 13.7941 14.9268 13.6904L15.5791 11.6904C15.7133 11.2789 16.0974 11 16.5303 11H22.4697Z" fill="#9E9E9E"/>
<circle cx="19.5" cy="20" r="4" fill="white"/>
<circle cx="19.5" cy="20" r="2" fill="#9E9E9E"/>
</svg>
