<svg width="70" height="24" viewBox="0 0 70 24" fill="none" xmlns="http://www.w3.org/2000/svg">
<g clip-path="url(#clip0_40000043_8365)">
<path d="M5.30537 14.5338C5.88233 12.9074 6.43745 9.94509 6.72502 8.31865C6.90157 7.36106 7.87895 7.02664 8.72164 7.16004C9.67536 7.31537 10.3633 8.00798 10.165 9.00943C10.0539 9.45533 9.94291 9.90123 9.83189 10.3691C10.3415 11.8182 11.1187 14.0002 11.4954 14.7367C11.7612 15.2484 11.9177 15.2941 12.1161 14.691C12.6039 13.198 13.2045 9.74589 13.3373 8.18524C13.4265 7.22766 14.3802 6.80369 15.2229 6.93709C16.0893 7.09242 16.932 7.82889 16.821 8.85409C16.4224 12.085 15.1574 16.6519 14.4694 18.123C14.0927 18.8576 13.2937 19.5721 11.9614 19.5721C10.6291 19.5721 9.96475 18.8375 9.60984 18.2125C9.34411 17.7666 8.87817 16.5422 8.41223 15.2045C7.98997 16.4746 7.56954 17.5217 7.25831 18.123C6.88155 18.8576 6.23724 19.5721 4.90677 19.5721C3.6855 19.5721 2.95383 18.8594 2.59892 18.123C1.86543 16.65 0.689663 12.573 0.023516 8.83034C-0.154851 7.80513 0.689663 7.09242 1.5997 6.93709C2.46423 6.80369 3.41977 7.13811 3.59632 8.07377C3.79653 9.38771 4.39533 13.0426 4.70656 14.5576C4.83943 15.1369 5.10516 15.115 5.30537 14.5357V14.5338Z" fill="#13DF6F"/>
<path d="M23.6337 6.82556C26.6077 6.82556 29.3815 8.85221 29.5143 12.8178C29.5362 14.1993 28.9155 15.0016 27.6288 15.0016H23.5245C22.7036 15.0016 22.3269 14.267 22.3269 13.4428C22.3269 12.6186 22.8147 11.8163 23.57 11.8163H25.6776C25.6558 11.0817 25.2554 10.0784 23.7247 10.0784C22.194 10.0784 21.3058 11.0598 21.3058 13.3313C21.3058 15.6028 22.2377 16.4727 23.8576 16.5623C24.6566 16.6061 25.5885 16.4727 26.4548 16.0049C27.343 15.5809 28.4077 15.8715 28.6953 16.9625C28.961 17.9877 28.1184 18.6784 27.7634 18.8776C26.6769 19.5246 25.1225 19.8809 23.6355 19.7914C19.2419 19.5246 17.4673 16.7395 17.4673 13.3295C17.4673 9.63071 19.6423 6.82373 23.6355 6.82373L23.6337 6.82556Z" fill="#13DF6F"/>
<path d="M39.3771 15.738C40.2416 15.5369 40.7749 15.7599 41.0861 16.4287C41.5521 17.3863 41.1753 18.3457 40.42 18.8574C39.732 19.3691 38.7783 19.5921 37.7354 19.5701C35.3165 19.5245 34.2518 17.8322 34.2081 15.2025C34.1862 13.6656 34.1644 12.0831 34.1644 10.5242H33.6548C32.8121 10.5242 32.2788 9.6105 32.2788 8.80825C32.2788 8.00599 32.8121 7.00272 33.6548 7.00272H34.1881C34.2099 6.29001 34.2317 5.62116 34.2554 4.97607C34.2554 3.90701 35.4093 3.43918 36.2739 3.48304C37.2057 3.5269 38.0266 4.12996 38.0266 5.06562C38.0048 5.71254 37.9829 6.35763 37.9829 7.00272H39.3589C40.3126 7.00272 40.7785 7.85066 40.7785 8.78632C40.7785 9.54289 40.3345 10.5242 39.3371 10.5242H37.8719C37.8501 11.9496 37.8719 13.4208 37.9829 14.8919C38.0503 15.939 38.8474 15.8714 39.3807 15.738H39.3771Z" fill="#13DF6F"/>
<path d="M45.8785 17.8999C45.9003 18.768 45.125 19.5702 44.0147 19.5702C42.7061 19.5702 42.1055 18.768 42.0618 17.9438C41.9944 16.7194 42.0399 13.5542 42.0399 12.1069C42.0399 9.05505 43.638 7.00464 46.8322 7.00464H49.0964C49.9845 7.00464 50.5379 7.89644 50.5379 8.94357C50.5379 9.87923 50.0501 10.771 49.0727 10.771H48.0298C46.7867 10.771 45.833 11.3065 45.833 12.8434C45.833 13.98 45.833 16.4965 45.8766 17.8999H45.8785Z" fill="#13DF6F"/>
<path d="M55.3756 18.0772C55.332 18.9251 54.2654 19.614 53.3117 19.5702C52.3343 19.5245 51.5371 18.8355 51.5371 17.92C51.6263 14.5995 51.6045 11.9497 51.5589 8.80829C51.5589 7.91649 52.3361 7.31525 53.268 7.22571C54.2891 7.13799 55.3756 7.64968 55.3756 8.71874C55.4648 11.6372 55.5085 14.5337 55.3756 18.0753V18.0772Z" fill="#13DF6F"/>
<path d="M63.6093 18.9233C62.854 18.9233 62.1005 18.0754 62.1005 17.052C62.1005 16.0944 62.8322 15.2026 63.6312 15.2026H63.8969C65.0945 15.2026 65.828 14.2669 65.828 12.9292C65.828 11.5915 65.2074 10.7235 63.4546 10.7235H61.9676C61.458 10.7235 61.4343 11.1694 61.4343 11.3028C61.256 14.8682 61.3233 18.7004 61.4562 21.5731C61.4999 22.3078 60.8792 23.11 59.5706 23.11C58.2619 23.11 57.685 22.2639 57.6395 21.5951C57.5503 19.5903 57.4848 10.4987 57.7724 8.64934C57.9489 7.55835 58.9044 7.00098 59.4596 7.00098H63.0979C67.1148 7.02291 69.5773 9.31819 69.5773 12.9494C69.5773 16.3813 67.8246 18.9215 64.4302 18.9215H63.6093V18.9233Z" fill="#13DF6F"/>
<path d="M56.1748 2.32626C56.1875 2.24951 56.1948 2.17276 56.1948 2.09235C56.1948 1.32482 55.5741 0.701655 54.8097 0.701655C54.5767 0.701655 54.3565 0.760133 54.1636 0.862471C53.8469 0.49698 53.3791 0.264893 52.8586 0.264893C51.9049 0.264893 51.1313 1.04156 51.1313 1.99915C51.1313 2.07773 51.1368 2.15448 51.1477 2.22941C50.4943 2.34088 49.9956 2.91105 49.9956 3.6C49.9956 4.36753 50.6162 4.9907 51.3807 4.9907C51.7483 4.9907 52.0814 4.84633 52.3289 4.61241C52.4654 5.2374 53.0187 5.70523 53.6813 5.70523C54.2655 5.70523 54.766 5.34157 54.968 4.82805C55.1628 4.93222 55.383 4.9907 55.6196 4.9907C56.3841 4.9907 57.0047 4.36753 57.0047 3.6C57.0047 3.02984 56.6644 2.5419 56.1748 2.32626Z" fill="#13DF6F"/>
</g>
<defs>
<clipPath id="clip0_40000043_8365">
<rect width="70" height="24" fill="white"/>
</clipPath>
</defs>
</svg>
